
<svg width="207" height="207" viewBox="0 0 207 207" fill="none" xmlns="http://www.w3.org/2000/svg">
<path d="M207 103.5C207 160.661 160.661 207 103.5 207C46.3385 207 0 160.661 0 103.5C0 46.3385 46.3385 0 103.5 0C160.661 0 207 46.3385 207 103.5ZM25.8999 103.5C25.8999 146.357 60.6426 181.1 103.5 181.1C146.357 181.1 181.1 146.357 181.1 103.5C181.1 60.6426 146.357 25.8999 103.5 25.8999C60.6426 25.8999 25.8999 60.6426 25.8999 103.5Z" fill="#D9D9D9"/>
<path d="M207 103.5C207 119.435 203.32 135.155 196.248 149.435C189.176 163.715 178.902 176.169 166.226 185.827C153.551 195.484 138.817 202.084 123.172 205.113C107.527 208.142 91.3945 207.517 76.0307 203.288C60.6669 199.059 46.4872 191.339 34.5965 180.731C22.7058 170.122 13.4253 156.911 7.47809 142.127C1.53094 127.343 -0.922218 111.386 0.309794 95.498C1.54181 79.6105 6.42571 64.222 14.5809 50.5316L36.8321 63.7865C30.7176 74.0509 27.0558 85.5886 26.1321 97.5005C25.2084 109.412 27.0477 121.377 31.5066 132.461C35.9656 143.545 42.9237 153.45 51.8389 161.404C60.7541 169.358 71.3855 175.146 82.9046 178.317C94.4238 181.488 106.52 181.956 118.249 179.686C129.979 177.415 141.026 172.466 150.53 165.225C160.033 157.984 167.736 148.647 173.039 137.94C178.341 127.234 181.1 115.448 181.1 103.5H207Z" fill="#FFDB70"/>
<path d="M207 103.5C207 129.984 196.848 155.46 178.633 174.685C160.418 193.91 135.526 205.421 109.081 206.849C82.6356 208.277 56.649 199.514 36.4697 182.362C16.2904 165.21 3.45376 140.975 0.601847 114.645L26.3511 111.856C28.4894 131.597 38.1137 149.768 53.2434 162.627C68.373 175.487 87.8567 182.058 107.684 180.987C127.512 179.917 146.175 171.286 159.832 156.872C173.488 142.458 181.1 123.356 181.1 103.5H207Z" fill="#FFDB70"/>
<path d="M207 103.5C207 119.108 203.47 134.513 196.674 148.564C189.879 162.615 179.993 174.947 167.758 184.637C155.523 194.327 141.254 201.124 126.02 204.52C110.786 207.916 94.9817 207.823 79.789 204.247L85.7225 179.036C97.1133 181.717 108.963 181.787 120.385 179.241C131.806 176.695 142.504 171.598 151.678 164.333C160.852 157.068 168.263 147.822 173.358 137.287C178.454 126.753 181.1 115.202 181.1 103.5H207Z" fill="#7FC882"/>
<path d="M66.6859 91.52C67.0459 91.0133 67.5392 90.5933 68.1659 90.26C68.8059 89.9133 69.5325 89.74 70.3459 89.74C71.2925 89.74 72.1459 89.9733 72.9059 90.44C73.6792 90.9067 74.2859 91.5733 74.7259 92.44C75.1792 93.2933 75.4059 94.2867 75.4059 95.42C75.4059 96.5533 75.1792 97.56 74.7259 98.44C74.2859 99.3067 73.6792 99.98 72.9059 100.46C72.1459 100.94 71.2925 101.18 70.3459 101.18C69.5325 101.18 68.8125 101.013 68.1859 100.68C67.5725 100.347 67.0725 99.9267 66.6859 99.42V106.28H63.8859V89.92H66.6859V91.52ZM72.5459 95.42C72.5459 94.7533 72.4059 94.18 72.1259 93.7C71.8592 93.2067 71.4992 92.8333 71.0459 92.58C70.6059 92.3267 70.1259 92.2 69.6059 92.2C69.0992 92.2 68.6192 92.3333 68.1659 92.6C67.7259 92.8533 67.3659 93.2267 67.0859 93.72C66.8192 94.2133 66.6859 94.7933 66.6859 95.46C66.6859 96.1267 66.8192 96.7067 67.0859 97.2C67.3659 97.6933 67.7259 98.0733 68.1659 98.34C68.6192 98.5933 69.0992 98.72 69.6059 98.72C70.1259 98.72 70.6059 98.5867 71.0459 98.32C71.4992 98.0533 71.8592 97.6733 72.1259 97.18C72.4059 96.6867 72.5459 96.1 72.5459 95.42ZM80.2405 91.64C80.6005 91.0533 81.0672 90.5933 81.6405 90.26C82.2272 89.9267 82.8939 89.76 83.6405 89.76V92.7H82.9005C82.0205 92.7 81.3539 92.9067 80.9005 93.32C80.4605 93.7333 80.2405 94.4533 80.2405 95.48V101H77.4405V89.92H80.2405V91.64ZM90.4465 101.18C89.3798 101.18 88.4198 100.947 87.5665 100.48C86.7132 100 86.0398 99.3267 85.5465 98.46C85.0665 97.5933 84.8265 96.5933 84.8265 95.46C84.8265 94.3267 85.0732 93.3267 85.5665 92.46C86.0732 91.5933 86.7598 90.9267 87.6265 90.46C88.4932 89.98 89.4598 89.74 90.5265 89.74C91.5932 89.74 92.5598 89.98 93.4265 90.46C94.2932 90.9267 94.9732 91.5933 95.4665 92.46C95.9732 93.3267 96.2265 94.3267 96.2265 95.46C96.2265 96.5933 95.9665 97.5933 95.4465 98.46C94.9398 99.3267 94.2465 100 93.3665 100.48C92.4998 100.947 91.5265 101.18 90.4465 101.18ZM90.4465 98.74C90.9532 98.74 91.4265 98.62 91.8665 98.38C92.3198 98.1267 92.6798 97.7533 92.9465 97.26C93.2132 96.7667 93.3465 96.1667 93.3465 95.46C93.3465 94.4067 93.0665 93.6 92.5065 93.04C91.9598 92.4667 91.2865 92.18 90.4865 92.18C89.6865 92.18 89.0132 92.4667 88.4665 93.04C87.9332 93.6 87.6665 94.4067 87.6665 95.46C87.6665 96.5133 87.9265 97.3267 88.4465 97.9C88.9798 98.46 89.6465 98.74 90.4465 98.74ZM99.7004 88.6C99.1937 88.6 98.7737 88.4467 98.4404 88.14C98.1204 87.82 97.9604 87.4267 97.9604 86.96C97.9604 86.4933 98.1204 86.1067 98.4404 85.8C98.7737 85.48 99.1937 85.32 99.7004 85.32C100.194 85.32 100.6 85.48 100.92 85.8C101.24 86.1067 101.4 86.4933 101.4 86.96C101.4 87.4267 101.24 87.82 100.92 88.14C100.6 88.4467 100.194 88.6 99.7004 88.6ZM101.08 102.82C101.08 104.047 100.774 104.927 100.16 105.46C99.5604 106.007 98.6937 106.28 97.5604 106.28H96.3204V103.9H97.1204C97.5471 103.9 97.8471 103.813 98.0204 103.64C98.1937 103.48 98.2804 103.213 98.2804 102.84V89.92H101.08V102.82ZM114.147 95.22C114.147 95.62 114.12 95.98 114.067 96.3H105.967C106.033 97.1 106.313 97.7267 106.807 98.18C107.3 98.6333 107.907 98.86 108.627 98.86C109.667 98.86 110.407 98.4133 110.847 97.52H113.867C113.547 98.5867 112.933 99.4667 112.027 100.16C111.12 100.84 110.007 101.18 108.687 101.18C107.62 101.18 106.66 100.947 105.807 100.48C104.967 100 104.307 99.3267 103.827 98.46C103.36 97.5933 103.127 96.5933 103.127 95.46C103.127 94.3133 103.36 93.3067 103.827 92.44C104.293 91.5733 104.947 90.9067 105.787 90.44C106.627 89.9733 107.593 89.74 108.687 89.74C109.74 89.74 110.68 89.9667 111.507 90.42C112.347 90.8733 112.993 91.52 113.447 92.36C113.913 93.1867 114.147 94.14 114.147 95.22ZM111.247 94.42C111.233 93.7 110.973 93.1267 110.467 92.7C109.96 92.26 109.34 92.04 108.607 92.04C107.913 92.04 107.327 92.2533 106.847 92.68C106.38 93.0933 106.093 93.6733 105.987 94.42H111.247ZM115.471 95.46C115.471 94.3133 115.704 93.3133 116.171 92.46C116.637 91.5933 117.284 90.9267 118.111 90.46C118.937 89.98 119.884 89.74 120.951 89.74C122.324 89.74 123.457 90.0867 124.351 90.78C125.257 91.46 125.864 92.42 126.171 93.66H123.151C122.991 93.18 122.717 92.8067 122.331 92.54C121.957 92.26 121.491 92.12 120.931 92.12C120.131 92.12 119.497 92.4133 119.031 93C118.564 93.5733 118.331 94.3933 118.331 95.46C118.331 96.5133 118.564 97.3333 119.031 97.92C119.497 98.4933 120.131 98.78 120.931 98.78C122.064 98.78 122.804 98.2733 123.151 97.26H126.171C125.864 98.46 125.257 99.4133 124.351 100.12C123.444 100.827 122.311 101.18 120.951 101.18C119.884 101.18 118.937 100.947 118.111 100.48C117.284 100 116.637 99.3333 116.171 98.48C115.704 97.6133 115.471 96.6067 115.471 95.46ZM131.482 92.22V97.58C131.482 97.9533 131.568 98.2267 131.742 98.4C131.928 98.56 132.235 98.64 132.662 98.64H133.962V101H132.202C129.842 101 128.662 99.8533 128.662 97.56V92.22H127.342V89.92H128.662V87.18H131.482V89.92H133.962V92.22H131.482ZM140.216 101.18C139.309 101.18 138.496 101.02 137.776 100.7C137.056 100.367 136.482 99.92 136.056 99.36C135.642 98.8 135.416 98.18 135.376 97.5H138.196C138.249 97.9267 138.456 98.28 138.816 98.56C139.189 98.84 139.649 98.98 140.196 98.98C140.729 98.98 141.142 98.8733 141.436 98.66C141.742 98.4467 141.896 98.1733 141.896 97.84C141.896 97.48 141.709 97.2133 141.336 97.04C140.976 96.8533 140.396 96.6533 139.596 96.44C138.769 96.24 138.089 96.0333 137.556 95.82C137.036 95.6067 136.582 95.28 136.196 94.84C135.822 94.4 135.636 93.8067 135.636 93.06C135.636 92.4467 135.809 91.8867 136.156 91.38C136.516 90.8733 137.022 90.4733 137.676 90.18C138.342 89.8867 139.122 89.74 140.016 89.74C141.336 89.74 142.389 90.0733 143.176 90.74C143.962 91.3933 144.396 92.28 144.476 93.4H141.796C141.756 92.96 141.569 92.6133 141.236 92.36C140.916 92.0933 140.482 91.96 139.936 91.96C139.429 91.96 139.036 92.0533 138.756 92.24C138.489 92.4267 138.356 92.6867 138.356 93.02C138.356 93.3933 138.542 93.68 138.916 93.88C139.289 94.0667 139.869 94.26 140.656 94.46C141.456 94.66 142.116 94.8667 142.636 95.08C143.156 95.2933 143.602 95.6267 143.976 96.08C144.362 96.52 144.562 97.1067 144.576 97.84C144.576 98.48 144.396 99.0533 144.036 99.56C143.689 100.067 143.182 100.467 142.516 100.76C141.862 101.04 141.096 101.18 140.216 101.18ZM63.0921 116.52C63.4521 116.013 63.9454 115.593 64.5721 115.26C65.2121 114.913 65.9388 114.74 66.7521 114.74C67.6988 114.74 68.5521 114.973 69.3121 115.44C70.0854 115.907 70.6921 116.573 71.1321 117.44C71.5854 118.293 71.8121 119.287 71.8121 120.42C71.8121 121.553 71.5854 122.56 71.1321 123.44C70.6921 124.307 70.0854 124.98 69.3121 125.46C68.5521 125.94 67.6988 126.18 66.7521 126.18C65.9388 126.18 65.2188 126.013 64.5921 125.68C63.9788 125.347 63.4788 124.927 63.0921 124.42V131.28H60.2921V114.92H63.0921V116.52ZM68.9521 120.42C68.9521 119.753 68.8121 119.18 68.5321 118.7C68.2654 118.207 67.9054 117.833 67.4521 117.58C67.0121 117.327 66.5321 117.2 66.0121 117.2C65.5054 117.2 65.0254 117.333 64.5721 117.6C64.1321 117.853 63.7721 118.227 63.4921 118.72C63.2254 119.213 63.0921 119.793 63.0921 120.46C63.0921 121.127 63.2254 121.707 63.4921 122.2C63.7721 122.693 64.1321 123.073 64.5721 123.34C65.0254 123.593 65.5054 123.72 66.0121 123.72C66.5321 123.72 67.0121 123.587 67.4521 123.32C67.9054 123.053 68.2654 122.673 68.5321 122.18C68.8121 121.687 68.9521 121.1 68.9521 120.42ZM76.6468 116.64C77.0068 116.053 77.4735 115.593 78.0468 115.26C78.6335 114.927 79.3001 114.76 80.0468 114.76V117.7H79.3068C78.4268 117.7 77.7601 117.907 77.3068 118.32C76.8668 118.733 76.6468 119.453 76.6468 120.48V126H73.8468V114.92H76.6468V116.64ZM86.8527 126.18C85.7861 126.18 84.8261 125.947 83.9727 125.48C83.1194 125 82.4461 124.327 81.9527 123.46C81.4727 122.593 81.2327 121.593 81.2327 120.46C81.2327 119.327 81.4794 118.327 81.9727 117.46C82.4794 116.593 83.1661 115.927 84.0327 115.46C84.8994 114.98 85.8661 114.74 86.9327 114.74C87.9994 114.74 88.9661 114.98 89.8327 115.46C90.6994 115.927 91.3794 116.593 91.8727 117.46C92.3794 118.327 92.6327 119.327 92.6327 120.46C92.6327 121.593 92.3727 122.593 91.8527 123.46C91.3461 124.327 90.6527 125 89.7727 125.48C88.9061 125.947 87.9327 126.18 86.8527 126.18ZM86.8527 123.74C87.3594 123.74 87.8327 123.62 88.2727 123.38C88.7261 123.127 89.0861 122.753 89.3527 122.26C89.6194 121.767 89.7527 121.167 89.7527 120.46C89.7527 119.407 89.4727 118.6 88.9127 118.04C88.3661 117.467 87.6927 117.18 86.8927 117.18C86.0927 117.18 85.4194 117.467 84.8727 118.04C84.3394 118.6 84.0727 119.407 84.0727 120.46C84.0727 121.513 84.3327 122.327 84.8527 122.9C85.3861 123.46 86.0527 123.74 86.8527 123.74ZM99.0266 114.74C99.8533 114.74 100.58 114.907 101.207 115.24C101.833 115.56 102.327 115.98 102.687 116.5V114.92H105.507V126.08C105.507 127.107 105.3 128.02 104.887 128.82C104.473 129.633 103.853 130.273 103.027 130.74C102.2 131.22 101.2 131.46 100.027 131.46C98.4533 131.46 97.16 131.093 96.1466 130.36C95.1466 129.627 94.58 128.627 94.4466 127.36H97.2266C97.3733 127.867 97.6866 128.267 98.1666 128.56C98.66 128.867 99.2533 129.02 99.9466 129.02C100.76 129.02 101.42 128.773 101.927 128.28C102.433 127.8 102.687 127.067 102.687 126.08V124.36C102.327 124.88 101.827 125.313 101.187 125.66C100.56 126.007 99.84 126.18 99.0266 126.18C98.0933 126.18 97.24 125.94 96.4666 125.46C95.6933 124.98 95.08 124.307 94.6266 123.44C94.1866 122.56 93.9666 121.553 93.9666 120.42C93.9666 119.3 94.1866 118.307 94.6266 117.44C95.08 116.573 95.6866 115.907 96.4466 115.44C97.22 114.973 98.08 114.74 99.0266 114.74ZM102.687 120.46C102.687 119.78 102.553 119.2 102.287 118.72C102.02 118.227 101.66 117.853 101.207 117.6C100.753 117.333 100.267 117.2 99.7466 117.2C99.2266 117.2 98.7466 117.327 98.3066 117.58C97.8666 117.833 97.5066 118.207 97.2266 118.7C96.96 119.18 96.8266 119.753 96.8266 120.42C96.8266 121.087 96.96 121.673 97.2266 122.18C97.5066 122.673 97.8666 123.053 98.3066 123.32C98.76 123.587 99.24 123.72 99.7466 123.72C100.267 123.72 100.753 123.593 101.207 123.34C101.66 123.073 102.02 122.7 102.287 122.22C102.553 121.727 102.687 121.14 102.687 120.46ZM111.041 116.64C111.401 116.053 111.868 115.593 112.441 115.26C113.028 114.927 113.695 114.76 114.441 114.76V117.7H113.701C112.821 117.7 112.155 117.907 111.701 118.32C111.261 118.733 111.041 119.453 111.041 120.48V126H108.241V114.92H111.041V116.64ZM126.627 120.22C126.627 120.62 126.601 120.98 126.547 121.3H118.447C118.514 122.1 118.794 122.727 119.287 123.18C119.781 123.633 120.387 123.86 121.107 123.86C122.147 123.86 122.887 123.413 123.327 122.52H126.347C126.027 123.587 125.414 124.467 124.507 125.16C123.601 125.84 122.487 126.18 121.167 126.18C120.101 126.18 119.141 125.947 118.287 125.48C117.447 125 116.787 124.327 116.307 123.46C115.841 122.593 115.607 121.593 115.607 120.46C115.607 119.313 115.841 118.307 116.307 117.44C116.774 116.573 117.427 115.907 118.267 115.44C119.107 114.973 120.074 114.74 121.167 114.74C122.221 114.74 123.161 114.967 123.987 115.42C124.827 115.873 125.474 116.52 125.927 117.36C126.394 118.187 126.627 119.14 126.627 120.22ZM123.727 119.42C123.714 118.7 123.454 118.127 122.947 117.7C122.441 117.26 121.821 117.04 121.087 117.04C120.394 117.04 119.807 117.253 119.327 117.68C118.861 118.093 118.574 118.673 118.467 119.42H123.727ZM132.911 126.18C132.004 126.18 131.191 126.02 130.471 125.7C129.751 125.367 129.178 124.92 128.751 124.36C128.338 123.8 128.111 123.18 128.071 122.5H130.891C130.944 122.927 131.151 123.28 131.511 123.56C131.884 123.84 132.344 123.98 132.891 123.98C133.424 123.98 133.838 123.873 134.131 123.66C134.438 123.447 134.591 123.173 134.591 122.84C134.591 122.48 134.404 122.213 134.031 122.04C133.671 121.853 133.091 121.653 132.291 121.44C131.464 121.24 130.784 121.033 130.251 120.82C129.731 120.607 129.278 120.28 128.891 119.84C128.518 119.4 128.331 118.807 128.331 118.06C128.331 117.447 128.504 116.887 128.851 116.38C129.211 115.873 129.718 115.473 130.371 115.18C131.038 114.887 131.818 114.74 132.711 114.74C134.031 114.74 135.084 115.073 135.871 115.74C136.658 116.393 137.091 117.28 137.171 118.4H134.491C134.451 117.96 134.264 117.613 133.931 117.36C133.611 117.093 133.178 116.96 132.631 116.96C132.124 116.96 131.731 117.053 131.451 117.24C131.184 117.427 131.051 117.687 131.051 118.02C131.051 118.393 131.238 118.68 131.611 118.88C131.984 119.067 132.564 119.26 133.351 119.46C134.151 119.66 134.811 119.867 135.331 120.08C135.851 120.293 136.298 120.627 136.671 121.08C137.058 121.52 137.258 122.107 137.271 122.84C137.271 123.48 137.091 124.053 136.731 124.56C136.384 125.067 135.878 125.467 135.211 125.76C134.558 126.04 133.791 126.18 132.911 126.18ZM143.809 126.18C142.903 126.18 142.089 126.02 141.369 125.7C140.649 125.367 140.076 124.92 139.649 124.36C139.236 123.8 139.009 123.18 138.969 122.5H141.789C141.843 122.927 142.049 123.28 142.409 123.56C142.783 123.84 143.243 123.98 143.789 123.98C144.323 123.98 144.736 123.873 145.029 123.66C145.336 123.447 145.489 123.173 145.489 122.84C145.489 122.48 145.303 122.213 144.929 122.04C144.569 121.853 143.989 121.653 143.189 121.44C142.363 121.24 141.683 121.033 141.149 120.82C140.629 120.607 140.176 120.28 139.789 119.84C139.416 119.4 139.229 118.807 139.229 118.06C139.229 117.447 139.403 116.887 139.749 116.38C140.109 115.873 140.616 115.473 141.269 115.18C141.936 114.887 142.716 114.74 143.609 114.74C144.929 114.74 145.983 115.073 146.769 115.74C147.556 116.393 147.989 117.28 148.069 118.4H145.389C145.349 117.96 145.163 117.613 144.829 117.36C144.509 117.093 144.076 116.96 143.529 116.96C143.023 116.96 142.629 117.053 142.349 117.24C142.083 117.427 141.949 117.687 141.949 118.02C141.949 118.393 142.136 118.68 142.509 118.88C142.883 119.067 143.463 119.26 144.249 119.46C145.049 119.66 145.709 119.867 146.229 120.08C146.749 120.293 147.196 120.627 147.569 121.08C147.956 121.52 148.156 122.107 148.169 122.84C148.169 123.48 147.989 124.053 147.629 124.56C147.283 125.067 146.776 125.467 146.109 125.76C145.456 126.04 144.689 126.18 143.809 126.18Z" fill="#0A0A0A"/>
</svg>